REM DIRINDEX 1\3,1\4,1\5,1\6,1\2\7,1\2\8,1\2\9,1\10
REM DIRNAME cjc056,folder01,folder02,folder03,folder04,folder05,folder06,folder07,folder08,folder09
TITLE ""
FILE "1-40 Level 2-339-349.mp3" MP3
  TRACK 01 AUDIO
    TITLE "0:"
    INDEX 01 00:00:00
  TRACK 02 AUDIO
    TITLE "10:cjc056_1153"
    INDEX 01 00:00:01
  TRACK 03 AUDIO
    TITLE "0:"
    INDEX 01 00:03:15
  TRACK 04 AUDIO
    TITLE "7:cjc056_1154"
    INDEX 01 00:03:59
  TRACK 05 AUDIO
    TITLE "0:"
    INDEX 01 00:05:09
  TRACK 06 AUDIO
    TITLE "8:cjc056_1155"
    INDEX 01 00:05:24
  TRACK 07 AUDIO
    TITLE "0:"
    INDEX 01 00:07:27
  TRACK 08 AUDIO
    TITLE "9:cjc056_1156"
    INDEX 01 00:07:39
  TRACK 09 AUDIO
    TITLE "0:"
    INDEX 01 00:10:18
  TRACK 10 AUDIO
    TITLE "7:cjc056_1157"
    INDEX 01 00:10:70
  TRACK 11 AUDIO
    TITLE "0:"
    INDEX 01 00:12:26
  TRACK 12 AUDIO
    TITLE "8:cjc056_1158"
    INDEX 01 00:12:40
  TRACK 13 AUDIO
    TITLE "0:"
    INDEX 01 00:13:51
  TRACK 14 AUDIO
    TITLE "9:cjc056_1159"
    INDEX 01 00:13:65
  TRACK 15 AUDIO
    TITLE "0:"
    INDEX 01 00:19:73
  TRACK 16 AUDIO
    TITLE "7:cjc056_1160"
    INDEX 01 00:20:51
  TRACK 17 AUDIO
    TITLE "0:"
    INDEX 01 00:21:62
  TRACK 18 AUDIO
    TITLE "8:cjc056_1161"
    INDEX 01 00:22:01
  TRACK 19 AUDIO
    TITLE "0:"
    INDEX 01 00:23:28
  TRACK 20 AUDIO
    TITLE "9:cjc056_1162"
    INDEX 01 00:23:42
  TRACK 21 AUDIO
    TITLE "0:"
    INDEX 01 00:28:02
  TRACK 22 AUDIO
    TITLE "7:cjc056_1163"
    INDEX 01 00:28:55
  TRACK 23 AUDIO
    TITLE "0:"
    INDEX 01 00:30:20
  TRACK 24 AUDIO
    TITLE "8:cjc056_1164"
    INDEX 01 00:30:34
  TRACK 25 AUDIO
    TITLE "0:"
    INDEX 01 00:31:67
  TRACK 26 AUDIO
    TITLE "9:cjc056_1165"
    INDEX 01 00:32:03
  TRACK 27 AUDIO
    TITLE "0:"
    INDEX 01 00:36:72
  TRACK 28 AUDIO
    TITLE "7:cjc056_1166"
    INDEX 01 00:37:46
  TRACK 29 AUDIO
    TITLE "0:"
    INDEX 01 00:38:65
  TRACK 30 AUDIO
    TITLE "8:cjc056_1167"
    INDEX 01 00:39:11
  TRACK 31 AUDIO
    TITLE "0:"
    INDEX 01 00:41:14
  TRACK 32 AUDIO
    TITLE "9:cjc056_1168"
    INDEX 01 00:41:26
  TRACK 33 AUDIO
    TITLE "0:"
    INDEX 01 00:44:05
  TRACK 34 AUDIO
    TITLE "7:cjc056_1169"
    INDEX 01 00:44:56
  TRACK 35 AUDIO
    TITLE "0:"
    INDEX 01 00:46:15
  TRACK 36 AUDIO
    TITLE "8:cjc056_1170"
    INDEX 01 00:46:29
  TRACK 37 AUDIO
    TITLE "0:"
    INDEX 01 00:48:57
  TRACK 38 AUDIO
    TITLE "9:cjc056_1171"
    INDEX 01 00:48:69
  TRACK 39 AUDIO
    TITLE "0:"
    INDEX 01 00:51:38
  TRACK 40 AUDIO
    TITLE "7:cjc056_1172"
    INDEX 01 00:52:16
  TRACK 41 AUDIO
    TITLE "0:"
    INDEX 01 00:53:33
  TRACK 42 AUDIO
    TITLE "8:cjc056_1173"
    INDEX 01 00:53:43
  TRACK 43 AUDIO
    TITLE "0:"
    INDEX 01 00:55:61
  TRACK 44 AUDIO
    TITLE "9:cjc056_1174"
    INDEX 01 00:55:73
  TRACK 45 AUDIO
    TITLE "0:"
    INDEX 01 00:58:44
  TRACK 46 AUDIO
    TITLE "7:cjc056_1175"
    INDEX 01 00:59:22
  TRACK 47 AUDIO
    TITLE "0:"
    INDEX 01 01:00:35
  TRACK 48 AUDIO
    TITLE "8:cjc056_1176"
    INDEX 01 01:00:49
  TRACK 49 AUDIO
    TITLE "0:"
    INDEX 01 01:03:29
  TRACK 50 AUDIO
    TITLE "9:cjc056_1177"
    INDEX 01 01:03:49
  TRACK 51 AUDIO
    TITLE "0:"
    INDEX 01 01:06:69
  TRACK 52 AUDIO
    TITLE "7:cjc056_1178"
    INDEX 01 01:07:41
  TRACK 53 AUDIO
    TITLE "0:"
    INDEX 01 01:08:46
  TRACK 54 AUDIO
    TITLE "8:cjc056_1179"
    INDEX 01 01:08:58
  TRACK 55 AUDIO
    TITLE "0:"
    INDEX 01 01:11:29
  TRACK 56 AUDIO
    TITLE "9:cjc056_1180"
    INDEX 01 01:11:41
  TRACK 57 AUDIO
    TITLE "0:"
    INDEX 01 01:13:65
  TRACK 58 AUDIO
    TITLE "7:cjc056_1181"
    INDEX 01 01:14:41
  TRACK 59 AUDIO
    TITLE "0:"
    INDEX 01 01:15:58
  TRACK 60 AUDIO
    TITLE "8:cjc056_1182"
    INDEX 01 01:15:72
  TRACK 61 AUDIO
    TITLE "0:"
    INDEX 01 01:18:02
  TRACK 62 AUDIO
    TITLE "9:cjc056_1183"
    INDEX 01 01:18:13
  TRACK 63 AUDIO
    TITLE "0:"
    INDEX 01 01:20:73
  TRACK 64 AUDIO
    TITLE "7:cjc056_1184"
    INDEX 01 01:21:51
  TRACK 65 AUDIO
    TITLE "0:"
    INDEX 01 01:22:54
  TRACK 66 AUDIO
    TITLE "8:cjc056_1185"
    INDEX 01 01:23:03
  TRACK 67 AUDIO
    TITLE "0:"
    INDEX 01 01:25:04
  TRACK 68 AUDIO
    TITLE "9:cjc056_1186"
    INDEX 01 01:25:17
  TRACK 69 AUDIO
    TITLE "0:"
    INDEX 01 01:28:06
